<svg width="30" height="30" viewBox="0 0 30 30" fill="none" xmlns="http://www.w3.org/2000/svg">
<path fill-rule="evenodd" clip-rule="evenodd" d="M26 5.38737C25.998 5.20014 25.9255 5.027 25.7936 4.89715L25.094 4.2046C24.8162 3.9298 24.3643 3.93281 24.0895 4.20762C23.8922 4.40391 23.717 4.58107 23.5952 4.70388L25.2964 6.38693C25.4182 6.26312 25.5933 6.08596 25.7896 5.88967C25.9255 5.75478 26 5.57561 26 5.38737ZM4 8.93598V23.3688C4 24.8213 5.17774 26.0041 6.62424 26.0041H21.0057C22.4522 26.0041 23.6289 24.8213 23.6289 23.3688V11.3458L22.2146 12.7541V23.3688C22.2146 24.0392 21.6721 24.5838 21.0057 24.5838H6.62424C5.95685 24.5838 5.41429 24.0392 5.41429 23.3688V8.93598C5.41429 8.26658 5.95685 7.722 6.62424 7.722H17.4242L18.8515 6.30067H6.62424C5.17774 6.30067 4 7.48344 4 8.93598ZM12.7685 15.4888L12.1565 17.7688L14.4707 17.1678L24.7975 6.87725L23.0993 5.19319L12.7685 15.4888Z" fill="#292929"/>
</svg>
