<svg width="24" height="24" viewBox="0 0 24 24" fill="none" xmlns="http://www.w3.org/2000/svg">
<path fill-rule="evenodd" clip-rule="evenodd" d="M15.9202 12.7988C15.9725 12.5407 16 12.2736 16 12C16 9.79086 14.2091 8 12 8C11.7264 8 11.4593 8.02746 11.2012 8.07977L12.3421 9.22069C13.615 9.37575 14.6243 10.385 14.7793 11.6579L15.9202 12.7988ZM9.54012 10.6614C9.32325 11.059 9.2 11.5151 9.2 12C9.2 13.5464 10.4536 14.8 12 14.8C12.4849 14.8 12.941 14.6768 13.3386 14.4599L14.212 15.3332C13.5784 15.7545 12.8179 16 12 16C9.79086 16 8 14.2091 8 12C8 11.1821 8.24547 10.4216 8.66676 9.78799L9.54012 10.6614Z" fill="#333333"/>
<path fill-rule="evenodd" clip-rule="evenodd" d="M15.9202 12.7988C15.9725 12.5407 16 12.2736 16 12C16 9.79086 14.2091 8 12 8C11.7264 8 11.4593 8.02746 11.2012 8.07977L12.3421 9.22069C13.615 9.37575 14.6243 10.385 14.7793 11.6579L15.9202 12.7988ZM9.54012 10.6614C9.32325 11.059 9.2 11.5151 9.2 12C9.2 13.5464 10.4536 14.8 12 14.8C12.4849 14.8 12.941 14.6768 13.3386 14.4599L14.212 15.3332C13.5784 15.7545 12.8179 16 12 16C9.79086 16 8 14.2091 8 12C8 11.1821 8.24547 10.4216 8.66676 9.78799L9.54012 10.6614Z" fill="#333333"/>
<path fill-rule="evenodd" clip-rule="evenodd" d="M16.2269 17.3482L15.3455 16.4669C14.2995 17.032 13.1682 17.4 12 17.4C10.3573 17.4 8.78772 16.6725 7.4255 15.6924C6.06802 14.7157 4.96723 13.5246 4.27507 12.6843C4.06999 12.4353 3.959 12.2981 3.89054 12.1833C3.83746 12.0943 3.8297 12.0508 3.8297 12C3.8297 11.9493 3.83746 11.9057 3.89054 11.8167C3.959 11.702 4.06999 11.5648 4.27507 11.3158C4.94356 10.5041 5.99323 9.36534 7.28718 8.40856L6.42997 7.55135C5.09514 8.56386 4.02751 9.72884 3.34881 10.5529L3.28528 10.6297C2.95966 11.0225 2.6297 11.4206 2.6297 12C2.6297 12.5794 2.95966 12.9775 3.28528 13.3704L3.34881 13.4472C4.07675 14.331 5.25211 15.607 6.72468 16.6665C8.19252 17.7225 10.0069 18.6 12 18.6C13.5418 18.6 14.9766 18.0749 16.2269 17.3482ZM9.11299 5.99173C10.014 5.62814 10.9838 5.40002 12 5.40002C13.9931 5.40002 15.8074 6.27752 17.2753 7.33357C18.7478 8.39302 19.9232 9.66906 20.6511 10.5529L20.7147 10.6297C21.0403 11.0225 21.3702 11.4206 21.3702 12C21.3702 12.5794 21.0403 12.9775 20.7147 13.3704L20.6511 13.4472C20.1694 14.032 19.4918 14.7886 18.6618 15.5406L17.8122 14.6909C18.6047 13.9781 19.2578 13.2513 19.7249 12.6843C19.93 12.4353 20.0409 12.2981 20.1094 12.1833C20.1625 12.0943 20.1702 12.0508 20.1702 12C20.1702 11.9493 20.1625 11.9057 20.1094 11.8167C20.0409 11.702 19.93 11.5648 19.7249 11.3158C19.0327 10.4754 17.9319 9.28431 16.5744 8.30766C15.2122 7.3276 13.6426 6.60002 12 6.60002C11.3344 6.60002 10.6808 6.71949 10.0481 6.9268L9.11299 5.99173Z" fill="#333333"/>
<path d="M5 2L21 18" stroke="#333333" stroke-width="1.2"/>
</svg>
