<svg width="24" height="24" viewBox="0 0 24 24" fill="none" xmlns="http://www.w3.org/2000/svg">
<path d="M11.7456 20.075L4.79301 13.5438C3.02481 11.8827 2.81008 9.14934 4.29723 7.23257L4.60659 6.83384C6.34665 4.59109 9.83942 4.96722 11.0621 7.52902C11.4386 8.31784 12.5614 8.31784 12.9379 7.52902C14.1606 4.96722 17.6533 4.59109 19.3934 6.83384L19.7028 7.23256C21.1899 9.14933 20.9752 11.8827 19.207 13.5438L12.2544 20.075C12.1274 20.1943 12.0581 20.2586 12.0045 20.2999C12.003 20.3011 12.0015 20.3023 12 20.3034C11.9985 20.3023 11.997 20.3011 11.9955 20.2999C11.9419 20.2586 11.8726 20.1943 11.7456 20.075Z" stroke="#1E1B1B"/>
</svg>
