<svg width="32" height="40" viewBox="0 0 32 40" fill="currentColor" xmlns="http://www.w3.org/2000/svg">
<path d="M16 19.5C16.9667 19.5 17.7917 19.1583 18.475 18.475C19.1583 17.7917 19.5 16.9667 19.5 16C19.5 15.0333 19.1583 14.2083 18.475 13.525C17.7917 12.8417 16.9667 12.5 16 12.5C15.0333 12.5 14.2083 12.8417 13.525 13.525C12.8417 14.2083 12.5 15.0333 12.5 16C12.5 16.9667 12.8417 17.7917 13.525 18.475C14.2083 19.1583 15.0333 19.5 16 19.5ZM16.05 39.4C15.8167 39.4 15.6 39.3667 15.4 39.3C15.2 39.2333 15.0167 39.1333 14.85 39C9.88333 34.6333 6.16667 30.5833 3.7 26.85C1.23333 23.1167 0 19.6333 0 16.4C0 11.4 1.60833 7.41667 4.825 4.45C8.04167 1.48333 11.7667 0 16 0C20.2333 0 23.9583 1.48333 27.175 4.45C30.3917 7.41667 32 11.4 32 16.4C32 19.6333 30.7667 23.1167 28.3 26.85C25.8333 30.5833 22.1167 34.6333 17.15 39C16.9833 39.1333 16.8083 39.2333 16.625 39.3C16.4417 39.3667 16.25 39.4 16.05 39.4Z"/>
</svg>
