<svg width="28" height="28" viewBox="0 0 28 28" fill="none" xmlns="http://www.w3.org/2000/svg">
<path d="M15.6715 3.13269L15.6708 3.13129C15.0822 1.97171 14.4427 1.64728 14.0218 1.65072C13.5997 1.65417 12.9624 1.99059 12.3862 3.16034C12.3861 3.16055 12.386 3.16075 12.3859 3.16096L10.0796 7.86948C9.85603 8.33385 9.47312 8.74238 9.06887 9.04727C8.66365 9.35289 8.16772 9.60663 7.66799 9.6957L7.66536 9.69617L3.41832 10.4375C2.19014 10.6526 1.69561 11.1586 1.56866 11.5677C1.44149 11.9775 1.56326 12.6757 2.45076 13.5488L5.78436 16.8283C6.17995 17.2174 6.45412 17.7488 6.60857 18.2722C6.76313 18.7958 6.82082 19.3894 6.70459 19.9285L6.70352 19.9335L6.70351 19.9335L5.79035 24.0344L5.79033 24.0345C5.44522 25.5834 5.78007 26.2786 6.0919 26.5022C6.40433 26.7263 7.17216 26.8209 8.53302 25.9981L8.53373 25.9977L12.501 23.6052L12.5058 23.6022L12.5058 23.6023C13.011 23.3028 13.628 23.1713 14.2045 23.1666C14.7803 23.1619 15.3989 23.283 15.9053 23.5775L19.9102 25.9043L15.6715 3.13269ZM15.6715 3.13269L18.0537 7.80119C18.0542 7.8022 18.0547 7.80321 18.0553 7.80422C18.2865 8.26512 18.6764 8.66766 19.0882 8.96636C19.5014 9.26605 20.005 9.51079 20.512 9.59103L20.5124 9.59109M15.6715 3.13269L20.5124 9.59109M20.5124 9.59109L24.771 10.2629C26.0033 10.4579 26.5097 10.9564 26.6444 11.364C26.7785 11.7698 26.6701 12.4687 25.7911 13.356L25.7893 13.3579M20.5124 9.59109L25.7893 13.3579M25.7893 13.3579L22.5098 16.6915C22.1206 17.0871 21.8552 17.6229 21.7093 18.1487C21.5634 18.6748 21.5154 19.2692 21.6404 19.8064L21.6404 19.8064M25.7893 13.3579L21.6404 19.8064M21.6404 19.8064L21.6416 19.8113M21.6404 19.8064L21.6416 19.8113M21.6416 19.8113L22.6216 23.8962M21.6416 19.8113L22.6216 23.8962M22.6216 23.8962C22.993 25.45 22.6704 26.148 22.3658 26.3739C22.06 26.6008 21.2949 26.7069 19.9108 25.9046L22.6216 23.8962Z" fill="#FABF35" stroke="#FABF35" stroke-width="1.5" stroke-linecap="round" stroke-linejoin="round"/>
</svg>
